<svg width="169" height="251" viewBox="0 0 169 251" fill="none" xmlns="http://www.w3.org/2000/svg">
<g clip-path="url(#clip0)">
<path d="M28.3216 67.6196C27.0043 66.3023 25.9065 65.2046 24.7539 64.1068C24.4246 63.7775 24.0953 63.3933 23.7659 63.064C23.3817 62.6798 22.8877 62.5151 22.3389 62.6249C19.1005 63.3933 15.7524 63.3384 12.4043 63.558C9.65995 63.7226 6.9156 64.052 4.17124 64.2715C3.78703 64.3264 3.40282 64.3264 3.01861 64.3264C2.19531 64.3813 1.70132 63.9971 1.42689 63.2287C0.219373 59.9354 -0.164836 56.4775 0.0547124 53.0197C0.109599 51.7573 0.548696 51.2084 1.86599 50.934C3.45771 50.6046 5.04944 50.3851 6.64116 50.2753C10.3735 49.946 14.1607 49.7264 17.893 49.3971C18.4419 49.3422 18.9359 49.2873 19.4299 49.1776C20.4727 49.0129 20.5825 48.9031 20.5276 47.8054C20.4727 46.5979 20.2532 45.3904 20.1434 44.128C20.0336 43.4144 19.9238 42.646 19.9238 41.9325C19.9238 41.658 20.1434 41.2738 20.4178 41.1092C21.4607 40.3956 22.6133 40.2859 23.8208 40.4505C24.5892 40.5603 25.3577 40.6701 26.181 40.6152C29.1449 40.5054 32.1088 40.2859 35.1276 40.1761C40.8907 39.9565 46.599 39.7919 52.3621 39.5723C56.7531 39.4077 61.144 39.243 65.4801 39.0783C67.3463 39.0235 69.1575 38.9137 71.0237 38.8588C72.5057 38.8039 72.7252 39.0783 72.8899 40.5603C73.1094 42.7009 73.2741 44.8415 73.4387 46.9821C73.8778 52.6903 74.2621 58.3437 74.7011 64.052C74.8109 65.2595 74.4816 65.6437 73.2741 65.7535C71.1884 65.9181 69.1027 66.0828 66.9621 66.2474C62.4613 66.5768 57.9606 66.9061 53.4598 67.2354C50.6606 67.455 47.8614 67.6196 45.0621 67.8392C40.4516 68.1685 35.896 68.4978 31.2855 68.8271C30.7366 68.882 30.2426 68.882 29.6937 68.882C28.596 68.8271 28.3764 68.5527 28.3216 67.6196ZM62.2418 60.155C62.1869 59.4963 62.132 59.167 62.132 58.8377C62.0771 57.7948 62.1869 56.6971 61.9673 55.7091C61.7478 54.6114 62.0222 53.9527 62.9004 53.2941C64.9861 51.7024 65.041 48.1347 63.12 46.4332C62.5162 45.9392 61.638 45.7197 61.1989 45.1159C60.7598 44.5122 60.7598 43.634 60.5403 42.8656C60.4854 42.646 60.211 42.4813 60.0463 42.3167C59.8816 42.5362 59.5523 42.7009 59.4974 42.9204C59.3876 43.4693 59.4974 44.0731 59.3876 44.6219C59.3876 44.8415 59.1132 45.0061 58.7839 45.3904C58.6741 44.4024 58.6192 43.7986 58.4546 43.14C58.3997 42.9204 58.0704 42.7009 57.8508 42.5911C57.741 42.5362 57.4117 42.8656 57.3568 43.0851C57.1922 43.5791 57.1373 44.128 57.1373 44.6219C57.1373 45.3355 56.9726 45.8295 56.3689 46.2686C55.5455 46.8723 55.0516 47.8054 54.8869 48.8482C54.832 49.1227 54.9967 49.6167 55.2162 49.7264C55.4358 49.8362 55.8749 49.7264 56.1493 49.5618C56.4786 49.3422 56.6433 49.0129 57.0275 48.5738C57.0824 49.8911 57.0824 50.9888 57.2471 52.1415C57.3568 52.855 57.247 53.349 56.5884 53.7881C55.2711 54.6663 54.5027 55.9836 54.0636 57.5204C53.5147 59.661 54.2283 61.3625 56.1493 62.4053C56.7531 62.7347 57.4117 63.0091 58.0704 63.2835C58.1252 63.6678 58.1252 64.052 58.1801 64.4362C58.2899 64.9302 58.4546 65.3693 59.0583 65.3693C59.6072 65.3693 59.7719 64.9302 59.8816 64.4911C59.9365 64.1068 59.9365 63.7226 59.9914 63.2287C60.3207 63.3933 60.5403 63.4482 60.7049 63.6129C60.8147 63.7775 60.8147 64.052 60.8696 64.2166C60.9794 64.6557 61.144 65.0948 61.6929 65.0399C62.2967 64.985 62.4064 64.4362 62.4064 63.9422C62.4064 63.558 62.3515 63.1738 62.3515 63.064C63.4493 62.1309 64.4373 61.4174 65.3155 60.5941C65.8643 60.1001 65.8094 59.2219 65.4252 58.7828C64.9861 58.2888 64.3824 58.2888 63.6688 58.8377C63.3395 59.167 62.9004 59.5512 62.2418 60.155Z" fill="#F8BB60"/>
<path d="M143.914 163.837C143.694 165.483 143.53 167.295 143.31 169.051C143.091 170.807 142.871 172.619 142.652 174.375C142.542 175.089 142.487 175.857 142.377 176.57C142.322 177.119 141.993 177.449 141.444 177.504C141.005 177.558 140.566 177.668 140.127 177.723C137.602 177.833 135.022 177.888 132.497 178.052C128.6 178.272 124.703 178.546 120.861 178.766C120.752 178.766 120.697 178.766 120.587 178.766C117.678 178.876 114.714 178.931 111.805 179.095C109.445 179.205 107.085 179.37 104.725 179.534C103.682 179.589 103.188 179.315 103.078 178.272C102.694 175.253 102.364 172.289 101.98 169.27C101.761 167.514 101.541 165.813 101.267 164.056C101.102 162.849 101.431 162.355 102.749 162.355C108.512 162.355 114.22 162.355 119.983 162.3C124.868 162.245 129.808 162.135 134.693 162.025C136.943 161.97 139.139 161.861 141.389 161.751C141.718 161.751 141.993 161.751 142.322 161.751C143.694 162.025 143.969 162.355 143.914 163.837Z" fill="#CCCBCB"/>
<path d="M24.5887 145.943C26.1804 145.779 27.827 145.614 29.4187 145.449C30.6811 145.34 31.9435 145.23 33.2059 145.12C34.7977 145.01 36.3345 144.956 37.9262 144.791C40.9999 144.571 44.0187 144.297 47.0924 144.077C48.4097 143.968 49.727 143.858 51.0442 143.803C53.0202 143.693 54.9961 143.638 56.9172 143.474C59.9908 143.254 63.0096 142.98 66.0833 142.76C67.6201 142.65 69.157 142.54 70.6938 142.486C72.0111 142.431 72.4502 143.089 71.9013 144.297C70.3096 147.645 68.7179 150.938 67.0713 154.231C66.7968 154.78 66.4675 155.11 65.8089 155.219C64.7111 155.329 63.6683 155.494 62.5705 155.604C60.4848 155.823 58.3991 155.988 56.3134 156.207C53.3495 156.537 50.3856 156.866 47.4766 157.14C45.3909 157.36 43.3052 157.525 41.2195 157.744C38.9142 157.964 36.6089 158.238 34.3037 158.458C32.3277 158.677 30.4067 158.842 28.4308 159.061C27.1684 159.171 25.906 159.281 24.6436 159.336C23.4909 159.391 23.2714 159.116 23.1616 158.019C22.8323 154.506 22.503 150.993 22.1736 147.425C22.0639 146.328 22.503 145.834 23.5458 145.834C23.93 145.834 24.3142 145.834 24.7533 145.834C24.5887 145.889 24.5887 145.889 24.5887 145.943Z" fill="#CCCBCB"/>
<path d="M50.3308 137.71C47.1474 137.985 43.9639 138.259 40.7805 138.534C39.4083 138.643 38.091 138.753 36.7188 138.808C34.688 138.918 32.6023 138.973 30.5715 139.137C27.4978 139.357 24.3692 139.631 21.2956 139.851C19.8685 139.961 18.4414 140.071 16.9595 140.125C14.4347 140.235 11.9099 140.345 9.33018 140.455C8.12266 140.51 7.84823 140.29 7.73845 139.083C7.5189 137.052 7.35424 134.966 7.13469 132.935C7.02492 131.673 6.91515 130.41 6.86026 129.148C6.80537 128.105 7.13469 127.831 8.17755 127.776C10.2084 127.666 12.1843 127.611 14.2151 127.501C17.4535 127.282 20.6369 127.007 23.8753 126.788C25.3023 126.678 26.7294 126.568 28.2113 126.513C30.4068 126.404 32.6023 126.349 34.7429 126.184C38.0361 125.965 41.3842 125.69 44.6775 125.471C46.5985 125.361 48.5196 125.251 50.4406 125.196C51.6481 125.141 51.8677 125.416 51.9774 126.623C52.3068 129.862 52.6361 133.045 52.9654 136.283C53.0752 137.326 52.8008 138.204 51.4835 137.875C51.1541 137.656 50.7699 137.765 50.3308 137.71Z" fill="#CCCBCB"/>
<path d="M74.7567 214.113C69.8169 214.113 64.8222 214.113 59.8823 214.113C57.2478 214.113 54.6132 214.003 51.9786 213.949C51.0455 213.949 50.8809 213.784 50.8809 212.851C50.9357 211.918 51.0455 211.04 51.1553 210.106C51.4846 207.691 51.8139 205.276 52.1433 202.807C52.3079 201.709 52.5824 201.489 53.6801 201.434C56.7538 201.325 59.8275 201.215 62.9011 201.16C66.2492 201.05 69.5425 200.995 72.8906 200.885C74.647 200.831 76.4033 200.776 78.1597 200.666C83.0996 200.227 88.0394 200.117 92.9792 200.117C93.2537 200.117 93.5281 200.117 93.7477 200.117C94.6259 200.172 95.0101 200.611 94.8454 201.489C94.2416 205.222 93.6379 209.009 93.0341 212.741C92.8695 213.729 92.4853 214.058 91.4424 214.113C89.3567 214.113 87.3259 214.113 85.2402 214.113C81.7823 214.113 78.2695 214.113 74.7567 214.113Z" fill="#CCCBCB"/>
<path d="M147.647 118.226C140.511 118.171 133.376 118.061 126.186 118.006C123.222 117.951 120.203 117.841 117.239 117.786C115.977 117.732 115.867 117.677 115.593 116.414C115.428 115.371 115.263 114.329 115.153 113.286C114.879 110.871 114.659 108.511 114.385 106.095C114.275 104.888 114.659 104.339 115.867 104.339C118.776 104.394 121.63 104.449 124.539 104.504C126.241 104.559 127.942 104.559 129.699 104.559C133.431 104.559 137.163 104.559 140.896 104.614C144.902 104.668 148.964 104.778 152.971 104.833C154.178 104.833 154.398 105.108 154.453 106.315C154.508 109.444 154.562 112.627 154.672 115.756C154.672 116.03 154.672 116.304 154.672 116.524C154.617 118.061 154.398 118.28 152.861 118.28C151.105 118.28 149.348 118.28 147.592 118.28C147.647 118.28 147.647 118.226 147.647 118.226Z" fill="#CCCBCB"/>
<path d="M128.216 91.9346C127.996 91.9346 127.777 91.9346 127.557 91.9346C125.581 91.9895 125.581 91.8797 125.252 89.9038C124.758 87.1046 124.429 84.3053 123.935 81.5061C123.715 80.2437 124.154 79.7497 125.472 79.7497C128.655 79.7497 131.839 79.585 135.077 79.5301C137.931 79.4204 140.785 79.3655 143.584 79.2557C146.768 79.1459 149.951 79.091 153.19 78.9813C157.032 78.8715 160.874 78.8166 164.771 78.7068C165.265 78.7068 165.814 78.597 166.308 78.4324C167.241 78.158 167.899 78.4324 167.899 79.3106C168.009 82.494 168.119 85.6775 168.119 88.9158C168.119 89.8489 167.735 90.0684 166.747 90.1233C163.014 90.288 159.337 90.5075 155.605 90.6722C151.653 90.8369 147.756 91.0015 143.804 91.2211C139.632 91.3857 135.516 91.5504 131.345 91.7699C130.302 91.7699 129.259 91.8797 128.216 91.9346C128.216 91.9895 128.216 91.9346 128.216 91.9346Z" fill="#CCCBCB"/>
<path d="M45.666 102.089C45.666 101.485 45.6111 100.717 45.666 100.003C45.7209 99.0699 45.9953 98.7955 46.9284 98.7406C50.7705 98.4662 54.6126 98.1917 58.4547 97.9173C61.8577 97.6977 65.2607 97.588 68.6637 97.3684C70.914 97.2586 73.2193 97.094 75.4697 96.9293C76.4028 96.8744 77.0065 97.2586 77.2261 98.1368C77.7749 100.717 78.3238 103.351 78.8178 105.986C79.0373 107.138 78.6531 107.632 77.4456 107.687C74.5915 107.907 71.7922 108.071 68.9381 108.291C65.1509 108.565 61.3637 108.84 57.5765 109.114C55.3261 109.279 53.0209 109.444 50.7705 109.608C49.6179 109.718 48.4104 109.828 47.2577 109.828C46.2149 109.883 45.9404 109.553 45.8855 108.511C45.8307 106.425 45.7758 104.339 45.666 102.089Z" fill="#CCCBCB"/>
<path d="M57.5766 56.4775C57.7412 57.7948 57.851 59.0024 58.0157 60.3745C57.1923 60.3196 56.6435 59.9903 56.4239 59.2768C56.0946 58.3986 56.5337 57.3009 57.5766 56.4775Z" fill="#F8BB60"/>
<path d="M60.1564 60.8685C59.5526 60.5392 59.5526 60.0452 59.6075 59.661C59.6624 58.1791 59.1135 56.6971 59.4428 54.9956C60.0466 55.8189 60.3759 59.167 60.1564 60.8685Z" fill="#F8BB60"/>
<path d="M59.3875 47.2016C59.5522 49.1227 59.8266 50.7693 59.6071 52.6904C58.7837 52.0866 59.0582 51.428 59.0033 50.8791C58.9484 50.2753 58.8935 49.6716 58.8935 49.0678C58.8386 48.5189 58.5642 47.8603 59.3875 47.2016Z" fill="#F8BB60"/>
<path d="M61.6934 51.0437C61.5836 50.0558 61.5287 49.1227 61.4189 48.1896C62.5716 48.8482 62.6814 50.0009 61.6934 51.0437Z" fill="#F8BB60"/>
<path d="M114.385 146.163C115.592 149.072 116.525 151.981 117.129 155C118.062 159.391 117.733 163.727 116.745 168.063C115.812 172.07 114.549 176.022 113.287 179.919C112.189 183.322 111.256 186.725 110.707 190.237C110.323 192.762 110.433 195.232 111.256 197.647C112.683 201.764 114.22 205.825 115.702 209.887C116.306 211.479 116.909 213.07 117.458 214.717C118.227 216.803 118.007 218.724 116.854 220.645C114.439 224.761 111.53 228.494 107.798 231.512C106.536 232.555 104.999 233.324 103.517 234.092C101.925 234.915 100.443 234.641 98.9613 233.543C96.4913 231.732 94.6252 229.482 93.0883 226.847C89.5756 220.7 86.447 214.388 84.3064 207.637C83.4831 205.112 82.8245 202.477 82.3305 199.843C81.6169 196.165 81.8914 192.543 82.3854 188.865C82.9342 184.419 84.2515 180.138 85.3493 175.802C86.1726 172.619 86.6666 169.38 86.7763 166.032C86.7763 165.703 86.7763 165.428 86.7763 165.099C86.6666 163.837 86.1726 163.288 84.9651 163.068C83.6478 162.794 82.3305 162.904 81.123 163.507C79.641 164.166 78.2688 165.044 77.0613 166.142C72.8899 169.929 69.5418 174.375 66.6877 179.205C64.6568 182.608 62.7907 186.176 60.8696 189.634C59.1681 192.762 57.4666 195.891 55.82 199.019C53.899 202.697 52.0877 206.374 50.2215 210.052C49.6178 211.204 48.9591 212.357 48.3005 213.509C46.7636 216.144 44.4035 217.406 41.3847 217.132C39.1343 216.967 36.9389 216.638 34.7434 216.254C30.7366 215.485 26.8396 214.223 23.0524 212.631C20.0336 211.369 18.8261 208.734 19.0457 205.331C19.2103 202.697 20.1434 200.172 21.3509 197.812C23.6562 193.256 26.0712 188.701 28.596 184.255C31.6148 179.04 35.2922 174.265 39.0246 169.545C46.1599 160.434 54.2283 152.201 63.12 144.791C65.8644 142.486 68.6087 140.18 71.408 137.82C72.2861 137.107 73.1643 136.448 74.4267 136.393C75.4696 136.338 76.4027 135.789 77.4455 135.515C79.7508 134.911 82.056 135.46 84.3613 135.625C88.0387 135.899 91.5515 135.57 94.5703 133.155C95.5583 132.331 95.668 132.332 95.2289 131.069C94.1861 128.105 93.0883 125.196 91.9906 122.287C91.4417 120.75 90.7831 119.268 90.1793 117.786C89.6305 116.469 89.4109 115.152 90.344 113.78C89.6853 113.176 89.0816 112.572 88.3681 112.078C87.0508 111.145 86.2275 109.883 85.5688 108.456C83.2636 103.68 84.9102 98.521 88.0387 95.5571C91.2771 92.4835 95.1192 91.3308 99.3455 91.6053C102.09 91.7699 104.834 92.2639 107.524 92.703C110.158 93.1421 112.354 94.5143 114.439 96.106C121.191 101.375 124.594 108.346 124.1 116.963C123.77 122.397 122.069 127.447 118.556 131.783C117.403 133.21 116.854 134.692 117.074 136.503C117.239 137.93 117.294 139.412 117.129 140.839C116.909 143.803 116.635 144.242 114.385 146.163Z" fill="#366EFD"/>
<path d="M117.074 84.1955C117.238 82.9331 117.458 81.3963 117.623 79.8595C117.842 77.9933 118.171 76.1271 118.171 74.261C118.171 71.1873 117.458 68.2234 115.043 66.0279C114.055 65.0948 112.847 64.6557 111.475 64.6557C110.872 64.6557 110.268 64.7106 109.609 64.6557C108.621 64.546 108.072 63.9971 108.072 63.0091C108.182 61.0332 108.237 59.0024 108.511 57.0264C108.841 54.8858 110.103 53.349 112.299 52.8001C113.561 52.4708 114.714 52.5806 115.811 53.2941C118.446 54.9407 119.928 57.4106 121.026 60.2099C121.465 61.4174 121.794 62.6249 122.014 63.8873C122.233 64.9302 122.672 65.7535 123.331 66.5768C124.538 67.949 125.746 69.2663 126.734 70.7482C129.039 74.0963 129.917 77.8286 129.149 81.7805C128.49 85.0189 126.734 87.5985 123.605 89.0256C122.343 89.5745 121.08 89.6843 119.763 89.3C117.897 88.7512 117.019 87.5985 116.964 85.6226C117.074 85.1286 117.074 84.7993 117.074 84.1955Z" fill="#366EFD"/>
<path d="M71.7377 115.975C71.7377 116.25 71.7377 116.359 71.7377 116.469C71.6279 119.927 68.4994 121.958 65.3708 120.421C64.4377 119.982 63.5595 119.323 62.9009 118.555C61.1445 116.524 60.925 114.548 62.4069 111.584C63.2851 109.773 64.767 108.565 66.9076 108.346C68.4994 108.181 69.652 108.675 70.3655 110.157C71.2437 112.023 71.6279 114.054 71.7377 115.975Z" fill="#366EFD"/>
<path d="M43.5251 216.089C44.1288 217.297 43.9093 218.559 43.58 219.712C42.8115 222.401 41.604 224.871 39.4634 226.792C38.0364 228.109 36.3898 228.768 34.4138 228.329C33.6454 228.164 32.9867 228.329 32.383 228.713C30.8462 229.646 29.3093 230.579 27.8274 231.567C26.4552 232.391 25.0281 232.994 23.4913 233.324C20.2529 234.037 17.2342 231.128 16.9597 228.274C16.7402 226.298 17.0146 224.487 17.8928 222.676C19.7041 218.943 22.2838 215.815 25.5221 213.235C26.1807 212.686 26.7296 212.521 27.6627 212.906C30.901 214.168 34.304 214.827 37.707 215.43C39.5732 215.65 41.4943 215.815 43.5251 216.089Z" fill="#F8BC60"/>
<path d="M114.494 224.267C115.921 225.42 116.305 227.012 116.525 228.549C117.019 232.006 117.074 235.464 116.525 238.867C116.196 241.008 115.537 243.039 114.275 244.85C114 245.234 113.671 245.618 113.396 245.948C110.817 248.857 106.535 247.32 105.438 244.576C104.614 242.435 103.791 240.294 103.517 238.044C103.352 236.672 103.352 235.245 103.242 233.873C103.187 233.214 103.462 232.83 104.066 232.555C106.426 231.293 108.731 229.866 110.707 228.109C111.75 227.176 112.683 226.134 113.616 225.091C113.945 224.871 114.165 224.597 114.494 224.267Z" fill="#F8BC60"/>
<path d="M107.413 109.169C105.547 108.51 103.681 107.962 101.869 107.248C100.991 106.919 100.772 106.26 100.936 105.327C100.991 104.943 101.156 104.559 101.266 104.174C101.705 103.077 102.418 102.692 103.571 103.022C104.833 103.406 106.041 103.9 107.303 104.339C107.742 104.504 108.181 104.668 108.62 104.888C109.663 105.327 110.047 105.821 109.938 106.754C109.883 107.852 109.279 108.675 108.346 108.895C108.072 108.95 107.742 109.004 107.468 109.059C107.413 109.059 107.413 109.114 107.413 109.169Z" fill="#F8BC60"/>
<path d="M76.7322 83.0977C78.4886 82.7135 79.6412 83.1526 80.3548 84.6895C81.3976 86.8849 82.3856 89.1353 83.2089 91.4406C85.2397 96.7646 87.1608 102.089 89.0818 107.468C90.3442 110.98 91.6066 114.493 92.869 117.951C93.857 120.75 94.845 123.549 95.8329 126.349C96.1074 127.062 96.2171 127.721 95.5036 128.215C95.2292 128.434 94.7352 128.654 94.4608 128.544C93.857 128.325 93.4179 128.599 92.9788 128.819C90.6187 130.136 88.039 130.63 85.4044 130.41C84.7457 130.355 84.0871 130.246 83.4833 130.026C83.0991 129.861 82.66 129.477 82.4954 129.093C81.2879 126.404 80.0255 123.769 78.9277 121.025C77.3909 117.237 75.9638 113.34 74.5367 109.498C73.1646 105.931 71.8473 102.363 70.4751 98.8503C69.2127 95.4473 67.8954 92.0443 66.5781 88.6962C66.0292 87.324 66.3037 86.6654 67.6759 86.1714C68.5541 85.8421 69.4871 85.5676 70.4751 85.2932C70.3653 83.9759 69.6518 82.988 69.2127 81.7256C68.4992 81.8353 67.8405 81.8902 67.127 82.0549C65.4804 82.3842 63.8886 82.7135 62.242 83.0428C61.9676 83.0977 61.6932 83.0977 61.4736 83.0977C59.6074 82.988 57.7413 83.2075 55.8751 83.1526C53.1308 83.0428 50.4962 82.6586 47.8616 82C44.8428 81.2316 41.9338 80.1887 39.1346 78.7617C35.6218 76.9504 32.3834 74.7549 29.4744 72.0654C25.303 68.3331 22.1196 63.8873 19.6496 58.8925C17.7835 55.1053 16.576 51.0986 15.8624 46.9272C15.3136 43.6888 15.1489 40.4505 15.4233 37.267C15.9173 31.1197 17.6737 25.3565 20.8023 20.0325C22.5038 17.1235 24.4797 14.4889 26.785 12.1288C30.7368 8.12201 35.4022 5.15811 40.6714 3.12729C43.6902 1.91978 46.8188 1.15136 50.0571 0.767149C52.4172 0.492714 54.8872 0.328052 57.2473 0.492714C62.1323 0.822036 66.7977 1.97466 71.2984 3.89571C75.36 5.6521 79.0375 7.95735 82.3856 10.8115C84.3615 12.513 86.063 14.434 87.7645 16.41C89.6856 18.6603 91.2224 21.1302 92.5946 23.7648C94.6803 27.8265 96.0525 32.1625 96.8209 36.6633C97.4247 40.0663 97.4247 43.4693 97.2051 46.8723C96.9307 51.2084 95.778 55.3798 94.1314 59.3865C92.7593 62.7346 90.8382 65.7534 88.6427 68.6076C86.8314 70.9677 84.6908 73.0534 82.2758 74.8647C80.2999 76.4015 78.2142 77.7188 75.9638 78.8714C74.9758 79.3654 74.8661 79.6398 75.3052 80.6278C75.9089 81.4511 76.348 82.2195 76.7322 83.0977ZM21.7354 40.2309C21.8451 41.8227 21.9549 43.4693 22.1196 45.061C22.3391 47.5858 22.888 50.0557 23.8211 52.4159C24.6444 54.5016 25.6872 56.4775 26.6752 58.4534C28.1023 61.2527 30.0233 63.6677 32.2188 65.8632C33.4263 67.1256 34.7985 68.2233 36.1707 69.3211C39.1895 71.791 42.5376 73.6023 46.215 74.8647C49.2887 75.9075 52.4172 76.5113 55.6556 76.7857C57.8511 77.0053 60.0466 76.8955 62.1871 76.6211C65.0413 76.2917 67.8405 75.5782 70.53 74.4256C75.7443 72.1752 80.245 68.9918 83.7578 64.6008C86.2826 61.4722 88.2036 57.9595 89.466 54.1723C90.8382 50.1106 91.3871 45.8843 91.1126 41.5482C90.948 38.9685 90.6187 36.4437 89.96 33.9189C88.972 29.9671 87.2705 26.2896 85.0202 22.9415C83.3187 20.4167 81.3976 18.0017 78.9826 16.0806C77.6104 14.9829 76.348 13.7754 74.921 12.7874C71.5728 10.4273 67.8405 8.72577 63.8886 7.7378C61.748 7.18893 59.5526 6.80473 57.3022 6.64006C53.2954 6.36563 49.2887 6.74984 45.3917 7.90247C42.1534 8.83555 39.1895 10.3175 36.3902 12.1288C33.6459 13.94 31.2308 16.1904 29.1451 18.7701C26.4008 22.1182 24.4248 25.8505 23.1624 29.9122C22.2842 33.3701 21.5707 36.7182 21.7354 40.2309Z" fill="#DDD7FC"/>
<path d="M101.925 149.731C102.145 151.432 100.937 152.53 99.4555 153.189C97.5344 154.012 95.5585 154.671 93.5277 155.329C92.3751 155.713 91.6066 155.384 90.948 154.396C89.96 153.024 89.466 151.432 89.0269 149.84C88.7525 148.798 88.6427 147.7 88.4781 146.602C88.4232 146.108 88.6427 145.779 89.0269 145.504C90.3991 144.571 91.8811 144.022 93.4728 143.693C94.6803 143.474 95.8878 143.254 97.0954 143.034C97.6991 142.925 98.3029 142.87 98.9066 142.87C99.5104 142.87 100.059 143.089 100.279 143.693C101.102 145.614 101.925 147.425 101.925 149.731Z" fill="#DDD7FC"/>
<path d="M107.03 227.615C109.719 233.818 110.213 239.965 108.128 246.277C107.853 247.155 107.359 247.979 106.81 248.692C104.725 251.327 100.828 251.382 98.6321 248.912C97.6441 247.814 96.9855 246.497 96.6562 245.07C96.3269 243.643 96.1073 242.161 95.8329 240.679C95.778 240.349 95.7231 240.02 95.6682 239.636C94.7351 239.855 93.802 240.075 92.9787 240.349C92.1554 240.624 91.387 240.459 90.7833 239.91C89.7953 239.032 88.6975 238.264 87.9291 237.221C86.3374 234.861 84.8006 232.446 83.4833 229.921C80.0803 223.389 77.3908 216.638 75.9637 209.338C74.8111 203.465 75.0856 197.647 76.6773 191.884C78.3788 185.737 79.6412 179.534 80.6292 173.222C81.0682 170.423 81.4525 167.569 81.672 164.715C81.8367 162.794 81.7269 160.873 81.7269 158.732C81.2329 159.007 80.9585 159.062 80.7389 159.226C78.2141 161.312 75.6344 163.398 73.1096 165.483C70.9141 167.349 68.7735 169.325 66.5232 171.137C59.2781 177.01 53.7894 184.255 49.7826 192.762C46.7089 199.239 43.5804 205.661 40.4518 212.082C39.6285 213.729 38.915 215.431 38.2015 217.132C37.9819 217.626 37.7075 218.175 37.433 218.669C36.7744 219.822 36.0609 220.864 34.4142 220.316C34.2496 220.81 34.1398 221.194 34.03 221.578C33.4263 223.719 32.0541 225.365 30.4075 226.792C29.5842 227.506 28.5962 227.945 27.4985 227.725C26.1812 227.451 25.1932 228.055 24.2601 228.823C23.4917 229.482 22.7782 230.14 22.0098 230.854C20.1985 232.446 18.2226 233.708 16.0271 234.586C13.9963 235.409 12.0203 235.355 9.9895 234.641C7.57447 233.818 6.53162 231.897 7.24515 229.427C7.51959 228.439 8.01357 227.451 8.56244 226.573C10.9775 222.456 12.4594 220.59 16.9053 216.034C16.4113 215.87 15.9722 215.76 15.5331 215.595C13.3925 214.937 11.3068 214.278 9.1662 213.564C8.83688 213.455 8.50755 212.961 8.45267 212.576C8.39778 211.973 8.50755 211.369 8.67221 210.765C9.82484 206.813 11.3617 202.971 13.3925 199.349C15.3684 195.671 17.4541 192.049 19.4301 188.371C22.6135 182.389 26.6752 177.064 31.1759 172.07C36.1157 166.581 41.1105 161.147 46.2699 155.878C51.3744 150.664 56.6984 145.669 61.9127 140.619C64.2728 138.369 66.6329 136.119 68.9382 133.868C69.1578 133.649 69.3773 133.429 69.542 133.21C68.0051 131.234 68.2247 131.398 69.3224 129.368C70.3104 127.556 71.463 125.855 72.6156 124.153C73.0547 123.55 73.1645 123.056 72.8352 122.342C72.5608 121.738 72.3412 121.135 72.0668 120.421C71.6826 120.586 71.4081 120.695 71.1337 120.86C67.0721 123.385 60.9796 120.695 60.5405 115.152C60.2661 110.926 61.6382 107.523 64.4924 104.559C64.7668 104.284 65.0961 104.065 65.4803 103.79C65.3706 103.461 65.2608 103.077 65.151 102.747C63.8337 99.2895 62.5713 95.8316 61.254 92.3737C61.0345 91.7151 60.8698 91.0015 60.5954 90.3978C60.2112 89.4098 60.5405 88.6963 61.3089 88.0925C62.242 87.4339 63.23 86.8301 64.2728 86.1715C63.8886 85.1835 63.5593 84.0858 63.1751 83.0429C40.3969 89.9587 17.3444 76.1271 11.1421 55.1603C5.04967 35.0167 15.1489 13.5559 34.6338 5.37768C54.0089 -2.74561 76.7322 5.10324 86.996 23.6002C90.5637 29.9671 92.3201 36.828 92.2103 44.128C92.1554 51.4828 90.1795 58.3437 86.4472 64.6557C82.7149 70.9129 77.6104 75.8527 71.1337 79.2557C71.6826 80.6828 72.2314 82.0001 72.7803 83.4271C73.4938 83.3173 74.1525 83.2076 74.8111 83.1527C76.5675 82.9331 77.1713 83.4271 77.6653 85.0737C77.9946 86.2813 78.4337 87.4888 78.9277 88.6414C79.5863 90.3429 80.2998 92.0444 81.0134 93.7459C81.178 94.1301 81.3427 94.5143 81.5622 95.0083C87.1607 91.2211 93.1983 88.8609 100.224 88.9158C99.7299 88.5316 99.5103 88.3121 99.2359 88.0925C97.3697 86.7752 96.2171 84.964 95.6682 82.7685C94.3509 77.2798 95.8877 72.5595 99.2907 68.2783C100.773 66.4121 102.584 64.9851 104.834 63.9971C104.779 63.6129 104.779 63.2287 104.725 62.8445C104.45 59.8806 105.164 57.1911 106.81 54.7212C107.908 53.1294 110.268 52.3061 112.079 52.9099C113.946 53.5137 115.592 54.5016 116.635 56.258C118.172 58.7828 119.105 61.4723 119.599 64.3813C119.819 65.5339 119.983 66.7414 120.148 67.8941C123.386 69.5407 124.539 72.4497 125.088 75.688C125.417 77.664 125.362 79.6399 124.868 81.561C123.825 85.5677 120.916 87.9828 116.745 88.2572C116.361 88.2572 115.922 88.367 115.592 88.2023C114.385 87.6534 113.452 88.2572 112.464 88.8609C111.256 89.5745 109.939 90.0685 108.622 90.6173C108.676 90.6722 108.786 90.8369 108.951 90.8918C114.494 93.6361 118.117 98.082 119.764 103.955C121.355 109.663 121.191 115.426 119.27 121.025C117.952 124.867 116.361 128.654 113.836 131.947C113.452 132.441 113.397 133.265 113.342 133.923C112.848 137.381 112.409 140.894 111.86 144.352C111.695 145.395 111.366 146.492 110.433 147.261C110.268 147.425 110.158 147.919 110.268 148.194C111.531 153.298 111.037 158.348 110.104 163.452C109.061 168.996 106.975 174.101 104.779 179.26C103.791 181.565 102.804 183.87 101.816 186.176C100.059 190.512 99.8396 194.958 100.773 199.458C101.651 203.795 102.968 207.966 104.45 212.082C105.877 216.144 106.92 220.316 107.743 224.542C107.908 225.749 107.469 226.682 107.03 227.615ZM101.486 93.8557C100.608 93.0324 100.608 91.9895 100.663 90.7271C99.2359 91.7151 98.0284 92.6482 97.0953 94.2399C97.9186 94.1301 98.5223 94.0203 99.1261 93.9654C99.8945 93.9106 100.718 93.8557 101.486 93.8557C101.541 94.7888 100.992 95.3376 100.114 95.4474C98.7968 95.6669 97.5344 95.8316 96.2171 95.7767C95.0096 95.7767 94.6802 95.0632 95.3389 94.0203C95.9426 93.0324 96.766 92.1542 97.4795 91.2211C97.6441 91.0015 97.8088 90.782 98.0284 90.5624C94.9547 90.4527 86.3374 94.0203 82.3307 97.4233C83.154 99.5639 83.9224 101.759 84.8555 104.12C85.2946 103.461 85.569 103.022 85.8983 102.583C88.1487 99.2895 90.6735 96.1609 93.7472 93.5812C94.1863 93.197 94.6254 92.7579 95.3938 92.703C95.2291 93.0872 95.1742 93.3068 95.0644 93.5263C94.4607 94.4045 93.802 95.3376 93.1434 96.2158C90.7284 99.4542 88.4231 102.802 86.4472 106.315C86.063 106.974 86.0081 107.577 86.2825 108.291C88.5329 114.329 90.6735 120.421 92.869 126.459C92.9787 126.788 93.1434 127.062 93.363 127.501C94.3509 127.007 95.284 126.623 96.1622 126.129C97.0953 125.635 97.9735 125.032 98.7968 124.373C99.6201 123.769 100.388 123.11 101.102 122.452C101.816 121.738 102.529 121.025 103.188 120.256C103.846 119.433 104.505 118.61 105.109 117.732C105.658 116.908 106.207 116.03 106.646 115.097C107.085 114.219 107.469 113.231 107.798 112.298C108.128 111.31 108.237 110.267 108.512 109.224C108.731 108.291 108.512 107.303 108.951 106.26C109.555 107.083 109.555 107.852 109.61 108.62C109.719 111.42 109.006 113.999 107.798 116.469C105.932 120.311 103.188 123.495 99.8396 126.129C97.1502 128.27 94.1863 129.807 90.7833 130.465C87.1607 131.179 83.4833 132.002 79.8607 130.465C78.7081 133.978 77.6104 137.381 76.5126 140.729C77.8848 142.266 80.2449 143.583 82.66 144.077C88.1487 145.285 93.3629 144.462 98.3577 141.937C101.541 140.345 104.34 138.095 107.03 135.735C114.055 129.642 117.952 121.903 118.556 112.627C118.885 107.577 117.843 102.802 114.824 98.6857C113.561 96.9842 112.079 95.5023 110.652 93.9654C110.158 93.4715 109.5 93.0872 108.731 92.5384C108.731 93.2519 108.731 93.691 108.731 94.1301C108.676 95.7767 108.182 97.3136 107.249 98.6857C107.085 98.9602 106.865 99.2895 106.591 99.509C106.097 99.9481 105.493 100.058 105.054 99.5639C103.682 98.082 102.2 96.6549 102.31 94.4594C102.035 94.2399 101.761 94.0203 101.486 93.8557ZM74.1525 154.561C74.7014 154.506 75.0856 154.396 75.4149 154.451C77.1713 154.725 78.9825 155 80.7389 155.329C81.3427 155.439 81.8916 155.713 82.4404 156.043C82.7697 156.262 83.154 156.646 83.2088 156.976C83.4833 157.909 83.5931 158.842 83.7028 159.83C84.1419 163.013 83.8675 166.197 83.4833 169.38C82.4953 177.174 81.2329 184.913 79.0374 192.488C77.6104 197.537 77.1713 202.642 78.0495 207.856C79.751 217.846 83.8126 226.847 89.3562 235.245C90.1246 236.397 91.1126 237.331 92.1554 238.154C92.5945 238.538 93.0336 238.593 93.4727 238.318C94.4058 237.77 95.3938 237.276 96.272 236.562C99.4554 233.982 102.035 230.799 104.56 227.615C105.109 226.957 105.548 226.188 106.042 225.53C105.767 224.597 105.493 223.773 105.273 222.95C104.066 218.504 102.749 214.113 101.212 209.777C99.9494 206.319 98.9065 202.807 98.3577 199.129C97.6441 194.464 97.8088 189.853 99.6201 185.407C100.388 183.541 101.212 181.73 101.98 179.864C104.34 174.21 106.755 168.557 107.853 162.465C108.841 157.25 108.676 152.091 107.798 146.931C107.688 146.877 107.634 146.822 107.524 146.767C104.889 145.834 102.255 144.901 99.5652 144.022C99.2907 143.913 99.0163 144.022 98.5772 144.022C99.2908 145.779 99.8945 147.371 100.553 148.907C101.102 150.28 100.992 150.993 99.8396 151.926C97.4246 153.902 94.8449 155.549 91.8261 156.372C90.1246 156.811 88.3682 156.976 86.6667 157.195C85.8983 157.305 85.1848 157.086 84.8555 156.207C83.9224 153.628 82.8246 151.048 82.0562 148.413C81.5622 146.712 80.9036 145.614 79.0923 145.12C77.7201 144.736 76.4577 143.913 75.4698 142.815C74.9209 142.211 74.5916 141.553 74.8111 140.674C75.0307 139.631 75.1953 138.534 75.4149 137.436C73.7134 136.228 71.957 135.076 70.4202 133.978C68.554 136.009 66.8525 137.985 65.0412 139.796C60.8149 144.022 56.5337 148.194 52.2525 152.365C45.3368 159.116 38.8601 166.307 32.4383 173.497C27.4436 179.04 23.1624 185.023 19.8692 191.774C18.7165 194.079 17.509 196.385 16.1917 198.635C14.106 202.367 12.4594 206.264 11.0872 210.326C10.8677 211.04 10.6481 211.698 10.4286 212.467C10.9226 212.576 11.197 212.741 11.5812 212.796C16.1917 213.784 20.8023 214.937 25.3579 216.309C28.7609 217.352 32.2188 217.955 35.6766 218.779C35.8413 218.34 35.9511 218.12 36.006 217.9C36.7744 215.925 37.433 213.949 38.3112 212.028C41.4947 205.167 44.6781 198.361 47.9165 191.555C50.6059 185.846 54.0089 180.577 58.345 175.967C63.7788 170.258 69.9262 165.374 75.9089 160.269C77.0615 159.281 78.269 158.348 79.6412 157.25C78.5983 156.866 77.6652 156.646 76.7871 156.262C75.9089 155.823 74.9209 155.659 74.1525 154.561ZM76.7871 112.353C77.2262 112.243 77.5555 112.188 77.8848 112.133C79.1472 112.023 79.751 112.792 79.2021 113.944C78.9277 114.493 78.5434 115.042 78.1043 115.371C77.0615 116.14 75.9638 116.853 74.8111 117.512C73.7134 118.116 73.6036 118.226 74.0427 119.433C74.7562 121.299 75.4698 123.11 76.1284 124.977C76.7322 126.513 77.3359 128.05 77.9946 129.752C78.3788 129.532 78.8179 129.423 78.9825 129.148C79.4216 128.38 80.0254 128.544 80.684 128.599C81.8916 128.764 83.0991 128.983 84.3066 128.929C85.8983 128.874 87.5449 128.599 89.1366 128.38C89.8502 128.27 90.5637 128.105 91.2772 127.941C86.1727 113.67 80.2998 99.8932 75.9637 85.3482C71.0788 85.897 66.6878 87.6534 62.3518 89.6294C64.3826 94.679 66.3585 99.6737 68.3344 104.504C69.5969 104.065 70.7495 103.571 71.9021 103.241C72.5059 103.077 73.2194 103.186 73.8232 103.351C74.7562 103.626 74.9758 104.284 74.4818 105.053C74.2623 105.382 74.0427 105.711 73.6585 106.26C74.2623 106.041 74.6465 105.931 75.0307 105.821C75.4698 105.711 75.9089 105.602 76.2931 105.602C77.2262 105.656 77.6104 106.315 77.1164 107.138C76.8968 107.523 76.5675 107.797 76.2382 108.126C76.0186 108.346 75.7991 108.565 75.4698 108.895C76.1833 108.785 76.6773 108.675 77.1713 108.675C78.4337 108.675 78.8179 109.389 78.1592 110.486C77.8299 111.2 77.3359 111.694 76.7871 112.353ZM66.4134 85.3482C67.7856 84.9091 69.048 84.47 70.3104 84.0858C69.9262 82.8783 69.5969 81.8354 69.3224 80.7925C68.9382 79.3106 69.1029 78.9264 70.4202 78.0482C71.7374 77.17 73.0547 76.3467 74.3171 75.3587C86.7216 65.5888 92.1554 52.855 89.6306 37.2122C86.1727 15.5867 65.3705 1.26115 43.6902 5.10325C22.0098 8.94534 7.90379 29.4731 12.3496 51.0437C17.0699 73.8219 39.8481 87.2692 61.9676 81.1219C63.6142 80.6828 64.163 80.8474 64.9863 82.3294C65.4803 83.2625 65.9194 84.2504 66.4134 85.3482ZM102.749 76.676C105.109 77.0602 106.536 78.5971 107.524 80.6279C107.634 80.8474 107.688 81.1219 107.688 81.3963C107.743 82.1098 107.359 82.4392 106.646 82.2745C106.097 82.1098 105.548 81.9452 105.054 81.6707C104.285 81.2316 103.572 80.7925 102.639 81.2865C102.364 81.3963 101.925 81.3414 101.596 81.2316C100.937 81.0121 100.773 80.7377 100.937 79.8046C101.486 79.8046 101.98 79.8046 102.694 79.8046C102.474 79.3655 102.364 79.091 102.2 78.8166C100.004 79.0362 98.0832 78.4324 97.4246 77.3347C98.0832 76.182 99.2359 75.7978 100.608 75.4685C100.169 74.3708 100.882 73.8768 101.761 73.4926C102.749 73.0535 103.462 72.285 104.011 71.352C104.34 70.8031 104.56 70.2542 104.176 69.4858C103.188 69.2662 102.2 68.9918 101.157 68.7174C98.4126 71.7911 97.0404 75.2489 97.1502 79.1459C97.3148 84.0858 98.4126 86.0617 103.352 87.9279C108.128 89.6842 113.781 87.4888 116.196 83.0429C116.416 82.6587 116.745 82.3294 117.074 82.1098C117.843 81.6707 118.556 82.1647 118.556 83.0429C118.007 83.4271 116.91 82.8783 116.745 84.0858C117.897 84.3602 118.721 84.1407 118.94 83.4271C119.325 82.1098 118.282 81.6158 117.294 81.067C117.294 80.573 117.349 80.1339 117.349 79.6948C117.349 78.4873 117.403 77.3347 117.403 76.1271C117.403 75.7429 117.239 75.3587 117.074 75.0294C115.757 73.1083 114.33 71.2971 113.013 69.376C112.519 68.6625 112.025 68.3881 111.201 68.3881C109.39 68.3881 107.579 68.2783 105.932 67.5099C105.328 67.2354 104.779 66.9061 104.176 66.6317C103.956 66.5219 103.682 66.6317 103.407 66.6317C103.572 66.961 103.791 67.0708 104.011 67.1805C105.383 67.7294 105.987 68.7723 105.877 70.1993C105.713 72.2302 104.45 73.4926 102.804 74.4805C102.529 74.6452 102.2 74.755 101.925 74.8647C102.2 75.4685 102.474 76.0174 102.749 76.676ZM32.2736 219.876C27.4436 219.437 23.2173 217.571 18.7714 216.528C18.003 217.406 17.3444 218.23 16.6857 219.053C14.4902 221.797 12.2948 224.542 10.5933 227.615C10.2091 228.274 9.82484 228.988 9.55041 229.756C9.05642 231.238 9.49552 232.061 10.9775 232.61C12.7887 233.269 14.4902 232.94 16.1917 232.061C18.1677 231.073 19.8692 229.701 21.5158 228.274C22.4489 227.451 23.4917 226.682 24.5346 226.024C25.303 225.53 26.1812 225.255 27.0594 225.475C28.1571 225.749 28.9804 225.31 29.6391 224.542C30.2977 223.773 30.9015 222.95 31.3955 222.127C31.7797 221.468 31.9443 220.7 32.2736 219.876ZM97.0953 238.538C97.4246 239.581 97.699 240.514 97.9735 241.447C98.2479 242.38 98.4126 243.313 98.7968 244.246C99.2359 245.289 99.675 246.387 100.388 247.265C101.651 248.912 104.176 248.747 105.328 247.046C105.822 246.277 106.152 245.399 106.371 244.521C107.469 240.514 107.249 236.452 106.261 232.446C106.097 231.677 105.877 230.964 105.603 230.031C102.694 232.994 100.334 236.178 97.0953 238.538ZM83.7028 146.492C84.7457 149.347 85.7885 152.091 86.8314 154.89C91.5517 154.89 95.284 152.804 98.7419 150.17C98.1381 148.359 97.5893 146.657 96.9855 144.791C92.7043 146.657 88.3133 146.822 83.7028 146.492ZM118.062 67.0708C117.897 64.546 117.403 62.1309 116.361 59.8806C115.428 57.7948 114.165 55.9836 111.97 55.0505C110.543 54.4467 109.006 54.7761 108.182 56.0933C106.81 58.1791 106.536 60.5392 106.316 63.064C111.531 61.0332 115.153 62.9542 118.062 67.0708ZM77.6653 113.835C77.6104 113.78 77.6104 113.725 77.5555 113.67C77.281 113.725 77.0066 113.725 76.7322 113.78C75.6344 114.054 74.5367 114.274 73.3841 114.548C72.8352 114.658 72.2863 114.768 72.0119 114.164C71.7374 113.56 72.2863 113.176 72.7254 112.901C73.3841 112.517 74.0976 112.188 74.8111 111.804C75.4149 111.474 75.9638 111.09 76.5675 110.761C76.5126 110.651 76.5126 110.596 76.4577 110.486C75.6344 110.706 74.8111 110.98 73.9878 111.145C73.4389 111.255 72.8352 111.365 72.2863 111.31C71.5179 111.255 71.2983 110.541 71.7374 109.938C72.0119 109.553 72.451 109.279 72.8352 109.004C73.2743 108.675 73.7134 108.346 74.1525 108.017C74.0976 107.907 74.0427 107.852 73.9878 107.742C73.2194 108.071 72.451 108.346 71.7374 108.675C70.6946 109.114 70.2555 109.169 69.9811 108.62C69.5969 107.907 70.1457 107.468 70.5299 107.029C71.0788 106.425 71.6277 105.876 72.2863 105.217C67.8405 106.095 65.7548 109.663 67.0172 113.67C67.0172 113.78 67.072 113.835 67.072 113.944C67.2916 114.768 67.8405 115.371 68.554 115.701C69.9262 116.304 71.4081 116.744 72.8901 116.25C74.1525 115.811 75.4149 115.207 76.6224 114.603C77.0615 114.438 77.3359 114.109 77.6653 113.835ZM101.267 142.925C104.176 143.693 107.03 144.462 109.884 145.175C110.268 141.827 110.707 138.589 111.091 135.35C107.798 137.875 104.615 140.345 101.267 142.925ZM119.819 85.5677C125.252 82.1647 124.045 72.6144 120.258 69.8151C119.983 71.0775 119.764 72.3399 119.928 73.6572C120.093 74.9196 120.038 76.182 119.544 77.3895C119.16 78.2677 118.94 79.1459 118.666 80.0241C121.136 81.3414 121.575 83.0429 119.819 85.5677ZM66.3585 105.931C66.2487 105.876 66.0841 105.821 65.9743 105.821C65.5352 106.48 65.0961 107.083 64.657 107.742C63.0653 109.992 62.4615 112.462 62.6262 115.207C62.7909 117.292 63.7788 118.774 65.6999 119.543C67.7307 120.366 69.4871 119.762 71.4081 118.5C70.5848 118.335 69.9811 118.171 69.3773 118.061C67.4014 117.677 66.0292 116.469 65.151 114.658C64.9314 114.164 64.7119 113.615 64.4375 113.121C63.7788 111.694 63.9435 110.322 64.7668 109.004C65.2059 108.291 65.6999 107.632 66.0841 106.919C66.3036 106.589 66.3036 106.205 66.3585 105.931ZM73.4389 133.594C73.3841 133.1 73.3841 132.99 73.3292 132.88C72.7803 130.74 72.8901 128.654 74.0427 126.678C74.2074 126.404 74.0427 125.91 74.0427 125.306C72.8901 126.623 71.0239 130.136 70.5848 131.563C71.4081 132.167 72.2863 132.825 73.4389 133.594ZM105.658 97.5331C106.755 96.106 107.194 94.2948 106.975 92.703C105.987 93.3617 104.944 94.0203 103.846 94.7887C104.395 95.6121 105.054 96.5451 105.658 97.5331ZM102.419 89.9038C101.925 91.4406 102.2 92.4286 103.023 92.6482C104.176 92.9226 105.273 92.0444 105.493 90.6722C104.505 90.3978 103.517 90.1782 102.419 89.9038ZM76.2382 134.143C76.8968 132.825 76.4577 130.85 75.1953 129.368C74.8111 131.124 75.0307 132.716 76.2382 134.143ZM115.922 85.5677C115.867 85.6775 115.757 85.7324 115.702 85.8422C115.647 86.0068 115.647 86.1715 115.647 86.3361C116.635 86.7203 117.458 86.391 118.172 86.1715C117.458 86.0068 116.745 85.7873 115.922 85.5677Z" fill="black"/>
<path d="M108.677 103.461C108.896 104.614 108.567 105.492 108.073 106.37C107.744 106.974 107.25 107.248 106.536 107.193C104.176 106.974 102.035 106.315 100.114 104.778C99.4557 104.229 99.2911 103.68 99.5106 102.912C99.5655 102.747 99.6204 102.583 99.6753 102.418C100.444 100.442 100.828 100.277 102.749 101.046C104.231 101.65 105.658 102.198 107.14 102.802C107.689 103.022 108.183 103.241 108.677 103.461ZM100.993 103.955C102.914 104.778 104.725 105.382 106.646 105.547C106.811 105.272 106.92 105.053 106.975 104.888C107.03 104.723 107.085 104.504 107.14 104.339C105.219 103.79 103.408 103.241 101.432 102.638C101.322 102.967 101.212 103.351 100.993 103.955Z" fill="black"/>
<path d="M51.1006 6.14612C68.884 6.14612 84.2524 18.2762 88.3141 35.5107C91.5524 49.3422 86.4479 64.2166 75.4705 73.1083C69.9818 77.5542 63.7795 80.4632 56.754 81.561C47.2585 83.0429 38.3668 81.2316 30.3533 76.0174C20.6932 69.7602 14.8203 60.8136 13.2286 49.452C10.7586 31.943 20.3639 15.5318 36.7202 8.89047C41.3307 7.02431 45.8864 6.14612 51.1006 6.14612ZM51.1006 79.585C52.9668 79.4204 54.8878 79.3655 56.754 79.091C62.7367 78.2128 68.2254 76.0174 72.9457 72.285C81.8374 65.2595 86.7772 56.0385 86.9419 44.622C87.1065 33.5348 82.9351 24.204 74.4825 17.0138C65.1517 9.11002 54.3939 6.74988 42.5931 9.54912C23.8218 13.995 10.8684 33.5897 16.7413 53.8979C21.297 69.7053 35.7871 79.585 51.1006 79.585Z" fill="black"/>
<path d="M109.335 70.1993C110.982 70.1444 112.354 71.352 112.464 72.7241C112.464 73.1632 112.464 73.6572 111.97 73.8219C111.531 74.0414 111.146 73.8219 110.817 73.4377C110.213 72.7241 109.555 72.1204 108.567 72.0106C108.347 71.9557 107.963 71.5715 107.963 71.2971C107.963 71.0226 108.237 70.6384 108.457 70.4738C108.786 70.3091 109.17 70.2542 109.335 70.1993Z" fill="black"/>
<path d="M102.144 71.352C102.144 72.0655 101.431 72.8339 100.717 72.8339C100.168 72.8339 99.8389 72.4497 99.8389 71.9008C99.8389 71.1873 100.607 70.4189 101.266 70.4189C101.76 70.4189 102.144 70.8031 102.144 71.352Z" fill="black"/>
<path d="M107.413 75.9076C106.919 75.9076 106.59 75.6332 106.59 75.1392C106.59 74.4805 107.248 73.7121 107.852 73.6572C108.291 73.6023 108.676 73.9865 108.676 74.4805C108.676 75.1392 108.072 75.9076 107.413 75.9076Z" fill="black"/>
<path d="M83.1537 36.7182C83.0989 38.3648 82.8244 40.231 81.8913 41.9325C81.1778 43.14 80.2447 44.0731 79.0372 44.7317C76.8966 45.8843 74.8109 45.1159 73.8229 42.9204C73.4387 42.0971 72.9996 41.2738 72.4508 40.5603C70.5297 38.1453 68.6635 35.7302 66.5778 33.4799C63.7786 30.4062 60.5403 27.8814 56.753 26.125C55.7651 25.6859 54.7771 25.1919 53.7891 24.6979C53.1854 24.3686 52.5816 24.0393 51.9779 23.6002C49.947 22.0634 49.3982 20.0325 50.3312 17.6724C51.6485 14.3243 55.2162 12.1837 58.7839 12.4581C62.7357 12.7874 66.2485 14.3243 69.4868 16.5746C74.4267 19.9776 78.3237 24.3686 81.2876 29.6378C82.6049 31.943 83.0989 33.8641 83.1537 36.7182ZM80.8485 36.2242C80.9034 34.5776 80.4094 32.7663 79.5312 31.0648C76.7868 25.9603 73.1094 21.6791 68.3891 18.2761C65.9192 16.5198 63.2297 15.3122 60.2658 14.7085C57.0824 14.0498 54.4478 14.9829 52.5267 17.6175C51.3192 19.2641 51.5937 20.6363 53.2403 21.7889C54.2831 22.5025 55.4357 23.0513 56.5884 23.5453C62.8455 26.125 67.6207 30.4611 71.5177 35.84C71.9019 36.3889 72.341 36.8829 72.7252 37.3769C73.8229 38.9137 74.9207 40.3956 76.0184 41.9874C76.5673 42.8107 77.171 43.0851 77.9944 42.5362C78.7079 42.0423 79.3665 41.4385 79.8605 40.725C80.6838 39.5174 80.9034 38.0355 80.8485 36.2242Z" fill="black"/>
</g>
<defs>
<clipPath id="clip0">
<rect width="168.119" height="250.285" fill="white" transform="translate(0 0.382957)"/>
</clipPath>
</defs>
</svg>
