<svg width="30" height="30" viewBox="0 0 30 30" fill="none" xmlns="http://www.w3.org/2000/svg">
<path d="M13.3348 6.20728H16.6774V6.76971H17.8845V6.12854C17.8847 5.50629 17.3787 5 16.7567 5H13.2555C12.6335 5 12.1275 5.50629 12.1275 6.12854V6.76971H13.3348V6.20728Z" fill="black"/>
<path d="M20.6723 11.5527H9.33991C9.0294 11.5527 8.78495 11.8176 8.80998 12.1272L9.75739 23.8423C9.81019 24.4963 10.3557 25 11.0111 25H19.001C19.6564 25 20.2019 24.4963 20.2547 23.8421L21.2021 12.1272C21.2273 11.8176 20.9828 11.5527 20.6723 11.5527ZM12.0839 23.7504C12.0712 23.7512 12.0586 23.7517 12.0461 23.7517C11.7296 23.7517 11.4639 23.5052 11.4443 23.1851L10.8505 13.5676C10.8301 13.2348 11.0832 12.9484 11.4159 12.928C11.7474 12.9078 12.0351 13.1604 12.0555 13.4933L12.6491 23.1108C12.6697 23.4436 12.4165 23.7298 12.0839 23.7504ZM15.6165 23.148C15.6165 23.4813 15.3462 23.7515 15.0128 23.7515C14.6794 23.7515 14.4092 23.4813 14.4092 23.148V13.5304C14.4092 13.197 14.6794 12.9268 15.0128 12.9268C15.3461 12.9268 15.6165 13.197 15.6165 13.5304V23.148ZM19.1617 13.566L18.5948 23.1834C18.5761 23.5042 18.3099 23.7515 17.9929 23.7515C17.981 23.7515 17.9689 23.7512 17.9569 23.7506C17.6241 23.7309 17.3702 23.4453 17.3898 23.1125L17.9566 13.4948C17.9761 13.1621 18.2608 12.9081 18.5945 12.9278C18.9273 12.9474 19.1812 13.2332 19.1617 13.566Z" fill="black"/>
<path d="M22.7597 9.68996L22.3633 8.50161C22.2588 8.18835 21.9655 7.97701 21.6352 7.97701H8.37696C8.04676 7.97701 7.75334 8.18835 7.64897 8.50161L7.25254 9.68996C7.1761 9.91915 7.27558 10.1529 7.46128 10.2695C7.53697 10.3169 7.62654 10.3455 7.72496 10.3455H22.2873C22.3858 10.3455 22.4755 10.3169 22.551 10.2693C22.7367 10.1528 22.8362 9.919 22.7597 9.68996Z" fill="black"/>
</svg>
