<svg viewBox="0 0 407 79" fill="none" xmlns="http://www.w3.org/2000/svg" style="display: block;"><path d="M377.428 23.733h5.334V43.21c0 5.015 1.433 8.877 4.298 11.6 1.215 1.203 2.712 2.178 4.49 2.9 1.829.659 3.876 1 6.127 1 1.957 0 3.722-.177 5.309-.544a19.755 19.755 0 002.519-.633c1.203-.393 1.766-1.71 1.369-2.9l-2.11-6.484c-.307-.925-1.42-1.317-2.341-.95-.614.177-1.433.266-2.469.266-1.586 0-2.801-.482-3.658-1.444a4.9 4.9 0 01-1.28-2.178 15.008 15.008 0 01-.268-2.9V23.733h8.442c1.394 0 2.533-1.127 2.533-2.508V14.21c0-1.38-1.139-2.507-2.533-2.507h-8.442V2.508c0-1.38-1.139-2.508-2.533-2.508h-6.92c-1.395 0-2.533 1.127-2.533 2.508v9.194h-5.334c-1.394 0-2.533 1.127-2.533 2.507v7.016c0 1.393 1.139 2.508 2.533 2.508zM38.055 29.761c4.093 0 7.1-3.85 4.886-7.244a23.343 23.343 0 00-19.596-10.6C10.45 11.917 0 22.302 0 35.105 0 47.91 10.45 58.306 23.345 58.306c8.212 0 15.439-4.217 19.596-10.6 2.213-3.394-.793-7.244-4.886-7.244h-.14c-1.958 0-3.685 1.178-4.938 2.673a12.562 12.562 0 01-9.632 4.47c-6.946 0-12.574-5.597-12.574-12.487s5.628-12.487 12.574-12.487c3.863 0 7.33 1.735 9.632 4.47 1.253 1.495 2.98 2.673 4.937 2.673h.14v-.013z" fill="#fff"></path><path fill-rule="evenodd" clip-rule="evenodd" d="M189.354 59.56c12.945 0 23.434-10.385 23.434-23.2 0-12.817-10.489-23.202-23.434-23.202s-23.435 10.385-23.435 23.201 10.49 23.201 23.435 23.201zm0-10.701c6.971 0 12.612-5.598 12.612-12.487 0-6.89-5.654-12.487-12.612-12.487-6.972 0-12.613 5.597-12.613 12.487s5.641 12.487 12.613 12.487z" fill="#fff"></path><path d="M348.161 19.744h-.729v-3.648c0-1.38-1.139-2.507-2.533-2.507h-6.728c-1.395 0-2.533 1.127-2.533 2.507V55.47c0 1.38 1.138 2.507 2.533 2.507h7.457c1.394 0 2.533-1.127 2.533-2.507V36.233c0-3.926 1.062-7.004 3.172-9.245 2.175-2.293 5.142-3.445 8.89-3.445 1.152 0 2.124.088 2.904.266 1.087.228 2.264-.532 2.264-1.646V14.5c0-1.052-.678-2.001-1.727-2.115-.601-.064-1.42-.089-2.456-.089-2.839 0-5.449.696-7.803 2.09-2.289 1.342-4.042 3.128-5.244 5.357z" fill="#fff"></path><path fill-rule="evenodd" clip-rule="evenodd" d="M326.134 36.36c0 12.815-10.489 23.2-23.434 23.2-12.946 0-23.435-10.385-23.435-23.2 0-12.817 10.489-23.202 23.435-23.202 12.945 0 23.434 10.397 23.434 23.201zm-10.988 0c0 6.901-5.616 12.486-12.549 12.486s-12.548-5.597-12.548-12.487 5.615-12.487 12.548-12.487c6.92 0 12.549 5.598 12.549 12.487zM76.621 59.56c12.945 0 23.435-10.384 23.435-23.2 0-12.817-10.49-23.189-23.435-23.189-12.945 0-23.434 10.385-23.434 23.201S63.69 59.56 76.621 59.56zm0-10.701c6.972 0 12.613-5.598 12.613-12.487 0-6.89-5.654-12.487-12.613-12.487-6.958 0-12.612 5.598-12.612 12.487 0 6.89 5.654 12.487 12.612 12.487zM269.147 36.36c0 12.816-10.489 23.2-23.434 23.2-4.4 0-8.519-1.203-12.037-3.292v20.225c0 1.38-1.138 2.507-2.532 2.507h-6.332c-1.395 0-2.533-1.127-2.533-2.507V15.679c0-1.38 1.138-2.508 2.533-2.508h6.332c1.394 0 2.532 1.127 2.532 2.508v.785a23.503 23.503 0 0112.037-3.293c12.945 0 23.434 10.385 23.434 23.188zm-11 0c0 6.901-5.616 12.486-12.549 12.486S233.05 43.25 233.05 36.36c0-6.889 5.615-12.487 12.548-12.487s12.549 5.598 12.549 12.487zM132.994 59.56c4.413 0 8.532-1.203 12.05-3.305-.167 3.685-1.254 6.585-3.275 8.687-2.2 2.356-5.181 3.534-8.967 3.534-2.379 0-4.541-.659-6.498-1.989a10.05 10.05 0 01-3.07-3.102c-.768-1.203-2.239-1.9-3.582-1.368l-6.754 2.672c-1.253.494-1.906 1.9-1.266 3.078a19.12 19.12 0 001.676 2.532c1.215 1.57 2.75 2.99 4.579 4.256 1.829 1.33 3.965 2.38 6.409 3.166 2.507.848 5.334 1.266 8.506 1.266 3.543 0 6.741-.57 9.606-1.722 2.93-1.09 5.424-2.685 7.509-4.8 2.072-2.052 3.697-4.585 4.848-7.611 1.164-2.964 1.663-6.307 1.663-10.056V15.666c0-1.38-1.138-2.508-2.533-2.508h-6.332c-1.394 0-2.532 1.127-2.532 2.508V16.45a23.503 23.503 0 00-12.037-3.293c-12.945 0-23.434 10.385-23.434 23.201s10.489 23.201 23.434 23.201zm-.128-10.701c6.933 0 12.549-5.598 12.549-12.487 0-6.89-5.616-12.487-12.549-12.487s-12.549 5.597-12.549 12.487 5.616 12.487 12.549 12.487z" fill="#fff"></path></svg>