<svg width="240" height="100" viewBox="0 0 644 126" fill="none" xmlns="http://www.w3.org/2000/svg">
<path d="M597.208 37.8525H605.648V68.9182C605.648 76.9169 607.915 83.0775 612.449 87.4202C614.372 89.3391 616.74 90.8944 619.553 92.0457C622.447 93.0961 625.686 93.6414 629.248 93.6414C632.345 93.6414 635.138 93.3587 637.648 92.7729C639.024 92.5103 640.36 92.1871 641.635 91.7629C643.538 91.1368 644.428 89.0361 643.801 87.1374L640.461 76.7957C639.975 75.3212 638.215 74.695 636.757 75.2808C635.786 75.5635 634.49 75.7049 632.851 75.7049C630.341 75.7049 628.418 74.9374 627.062 73.4023C626.091 72.4327 625.423 71.2814 625.038 69.9281C624.755 68.4738 624.613 66.9387 624.613 65.3026V37.8525H637.972C640.178 37.8525 641.979 36.0548 641.979 33.8531V22.663C641.979 20.4613 640.178 18.6636 637.972 18.6636H624.613V3.99935C624.613 1.79769 622.812 0 620.606 0H609.656C607.449 0 605.648 1.79769 605.648 3.99935V18.6636H597.208C595.002 18.6636 593.2 20.4613 593.2 22.663V33.8531C593.2 36.075 595.002 37.8525 597.208 37.8525Z" fill="black"/>
<path d="M60.2146 47.467C66.6915 47.467 71.448 41.3266 67.9464 35.9134C61.3683 25.7332 49.9326 19.007 36.9384 19.007C16.5363 19.007 0 35.57 0 55.9909C0 76.4119 16.5363 92.995 36.9384 92.995C49.9326 92.995 61.3683 86.2688 67.9464 76.0887C71.448 70.6754 66.6915 64.535 60.2146 64.535H59.992C56.8952 64.535 54.1628 66.4135 52.1793 68.7969C48.536 73.1599 43.0509 75.9271 36.9384 75.9271C25.948 75.9271 17.0423 66.9992 17.0423 56.0111C17.0423 45.023 25.948 36.0951 36.9384 36.0951C43.0509 36.0951 48.536 38.8624 52.1793 43.2253C54.1628 45.6088 56.8952 47.4872 59.992 47.4872H60.2146V47.467Z" fill="black"/>
<path fill-rule="evenodd" clip-rule="evenodd" d="M299.616 94.9946C320.099 94.9946 336.696 78.4317 336.696 57.9905C336.696 37.5494 320.099 20.9864 299.616 20.9864C279.133 20.9864 262.536 37.5494 262.536 57.9905C262.536 78.4317 279.133 94.9946 299.616 94.9946ZM299.616 77.9267C310.647 77.9267 319.573 68.9988 319.573 58.0107C319.573 47.0226 310.627 38.0948 299.616 38.0948C288.585 38.0948 279.659 47.0226 279.659 58.0107C279.659 68.9988 288.585 77.9267 299.616 77.9267Z" fill="black"/>
<path d="M550.898 31.4897H549.745V25.6725C549.745 23.4708 547.943 21.6731 545.737 21.6731H535.091C532.884 21.6731 531.083 23.4708 531.083 25.6725V88.4704C531.083 90.6721 532.884 92.4698 535.091 92.4698H546.891C549.097 92.4698 550.898 90.6721 550.898 88.4704V57.7885C550.898 51.5269 552.578 46.6186 555.918 43.0434C559.359 39.3874 564.054 37.5494 569.985 37.5494C571.806 37.5494 573.345 37.6908 574.579 37.9735C576.3 38.3371 578.162 37.1252 578.162 35.3477V23.1275C578.162 21.451 577.089 19.936 575.429 19.7543C574.478 19.6533 573.183 19.6129 571.543 19.6129C567.05 19.6129 562.921 20.7238 559.197 22.9457C555.574 25.0867 552.801 27.9348 550.898 31.4897Z" fill="black"/>
<path fill-rule="evenodd" clip-rule="evenodd" d="M516.045 57.9905C516.045 78.4317 499.448 94.9946 478.964 94.9946C458.481 94.9946 441.884 78.4317 441.884 57.9905C441.884 37.5494 458.481 20.9864 478.964 20.9864C499.448 20.9864 516.045 37.5696 516.045 57.9905ZM498.658 57.9905C498.658 68.9988 489.773 77.9065 478.803 77.9065C467.832 77.9065 458.947 68.9786 458.947 57.9905C458.947 47.0024 467.832 38.0746 478.803 38.0746C489.752 38.0746 498.658 47.0024 498.658 57.9905Z" fill="black"/>
<path fill-rule="evenodd" clip-rule="evenodd" d="M121.239 94.9949C141.722 94.9949 158.319 78.4319 158.319 57.9908C158.319 37.5496 141.722 21.0069 121.239 21.0069C100.756 21.0069 84.1587 37.5698 84.1587 58.011C84.1587 78.4521 100.776 94.9949 121.239 94.9949ZM121.239 77.9269C132.27 77.9269 141.196 68.9991 141.196 58.011C141.196 47.0228 132.249 38.095 121.239 38.095C110.228 38.095 101.282 47.0228 101.282 58.011C101.282 68.9991 110.228 77.9269 121.239 77.9269Z" fill="black"/>
<path fill-rule="evenodd" clip-rule="evenodd" d="M425.874 57.9908C425.874 78.4319 409.277 94.9949 388.794 94.9949C381.832 94.9949 375.314 93.076 369.748 89.7432V122.001C369.748 124.202 367.947 126 365.741 126H355.722C353.516 126 351.714 124.202 351.714 122.001V25.0062C351.714 22.8045 353.516 21.0069 355.722 21.0069H365.741C367.947 21.0069 369.748 22.8045 369.748 25.0062V26.2585C375.314 22.9257 381.832 21.0069 388.794 21.0069C409.277 21.0069 425.874 37.5698 425.874 57.9908ZM408.468 57.9908C408.468 68.9991 399.582 77.9068 388.612 77.9068C377.642 77.9068 368.756 68.9789 368.756 57.9908C368.756 47.0027 377.642 38.0748 388.612 38.0748C399.582 38.0748 408.468 47.0027 408.468 57.9908Z" fill="black"/>
<path fill-rule="evenodd" clip-rule="evenodd" d="M210.438 94.9946C217.42 94.9946 223.938 93.0758 229.504 89.7228C229.241 95.6006 227.52 100.226 224.322 103.579C220.841 107.336 216.125 109.215 210.134 109.215C206.369 109.215 202.949 108.164 199.852 106.043C197.868 104.751 196.249 103.094 194.994 101.095C193.78 99.1758 191.452 98.0649 189.327 98.9132L178.64 103.175C176.657 103.963 175.624 106.205 176.636 108.083C177.365 109.437 178.256 110.77 179.288 112.123C181.211 114.628 183.639 116.89 186.534 118.91C189.428 121.031 192.808 122.707 196.674 123.96C200.641 125.313 205.114 125.98 210.134 125.98C215.74 125.98 220.801 125.071 225.334 123.232C229.969 121.495 233.916 118.95 237.215 115.577C240.494 112.305 243.065 108.265 244.886 103.438C246.728 98.7112 247.518 93.3787 247.518 87.3999V24.9858C247.518 22.7841 245.716 20.9864 243.51 20.9864H233.491C231.285 20.9864 229.484 22.7841 229.484 24.9858V26.0967V26.2381C223.917 22.9053 217.4 20.9864 210.438 20.9864C189.954 20.9864 173.357 37.5494 173.357 57.9905C173.357 78.4317 189.954 94.9946 210.438 94.9946ZM210.235 77.9267C221.205 77.9267 230.091 68.9988 230.091 58.0107C230.091 47.0226 221.205 38.0948 210.235 38.0948C199.265 38.0948 190.379 47.0226 190.379 58.0107C190.379 68.9988 199.265 77.9267 210.235 77.9267Z" fill="black"/>
</svg>
