<svg width="15" height="15" viewBox="0 0 15 15" fill="none" xmlns="http://www.w3.org/2000/svg">
<path fill-rule="evenodd" clip-rule="evenodd" d="M7.3005 0C11.3325 0 14.601 3.13776 14.601 7.00848C14.601 10.8792 11.3325 14.017 7.3005 14.017C3.2685 14.017 0 10.8792 0 7.00848C0 3.13776 3.2685 0 7.3005 0ZM5.133 6.40368C6.6075 4.74912 8.4465 4.63824 8.8905 5.07312C9.333 5.508 7.5705 10.2514 7.869 10.3896C8.1675 10.5278 9.468 10.0195 9.468 10.0195C9.468 10.0195 8.331 11.916 6.645 11.7864C4.4925 11.6208 7.32 7.35408 6.831 6.3072C6.7065 6.0408 5.619 6.37056 5.133 6.40368ZM7.821 2.2248C8.517 2.2248 9.0825 2.61936 9.0825 3.10752C9.0825 3.59568 8.517 3.99024 7.821 3.99024C7.1235 3.99024 6.558 3.59568 6.558 3.10752C6.558 2.61936 7.1235 2.2248 7.821 2.2248Z" fill="#4A4949"/>
</svg>
