<svg width="129" height="129" viewBox="0 0 129 129" fill="none" xmlns="http://www.w3.org/2000/svg">
<path d="M112.003 2.23343C108.076 -1.69314 101.879 0.0916654 98.484 3.47899C96.6233 5.33975 94.7701 8.9929 93.1828 12.7979C84.3195 4.76254 72.4031 0.091666 59.5373 0.714448C33.7754 1.95242 13.8236 23.9169 15.054 49.6788C16.292 75.4407 38.2564 95.3926 64.0183 94.1546C89.7803 92.9166 109.732 70.9521 108.494 45.1902C108.069 36.3725 105.213 28.2384 100.618 21.3954C104.704 19.7397 108.752 17.7498 110.75 15.7524C114.137 12.365 115.922 6.16 111.995 2.23343H112.003ZM63.1373 75.6838C47.5602 76.4281 34.2767 64.3674 33.5248 48.7826C32.7805 33.2055 44.8412 19.922 60.4259 19.1701C76.0031 18.4258 89.2866 30.4865 90.0385 46.0712C90.7828 61.6484 78.7221 74.9319 63.1373 75.6838Z" fill="#EE3425"/>
<path d="M104.537 96.6077C102.699 94.39 99.7973 95.5748 97.8758 97.0634C95.3239 99.0457 92.7492 100.982 89.9923 102.691C84.5164 106.094 78.5088 108.722 72.1291 109.808C66.038 110.841 57.5089 110.841 51.4102 109.808C45.0304 108.722 39.0229 106.094 33.5469 102.691C30.7976 100.982 28.2229 99.0533 25.6634 97.0634C23.7419 95.5748 20.8482 94.39 19.0027 96.6077C15.4862 100.853 17.6964 107.522 20.309 111.63C23.666 116.901 29.5596 120.456 34.99 123.251C35.0963 123.304 35.2026 123.357 35.3089 123.41C43.4431 127.473 51.6684 129 61.762 129C71.8557 129 80.0809 127.473 88.2151 123.41C88.3214 123.357 88.4277 123.304 88.5341 123.251C93.9644 120.456 99.8505 116.901 103.215 111.63C105.828 107.529 108.038 100.853 104.521 96.6077H104.537Z" fill="#EE3425"/>
</svg>
