<?xml version="1.0" standalone="no"?>
<!DOCTYPE svg PUBLIC "-//W3C//DTD SVG 20010904//EN"
 "http://www.w3.org/TR/2001/REC-SVG-20010904/DTD/svg10.dtd">
<svg version="1.0" xmlns="http://www.w3.org/2000/svg"
 width="513.000000pt" height="513.000000pt" viewBox="0 0 513.000000 513.000000"
 preserveAspectRatio="xMidYMid meet">
<metadata>
Created by potrace 1.14, written by Peter Selinger 2001-2017
</metadata>
<g transform="translate(0.000000,513.000000) scale(0.100000,-0.100000)"
fill="#000000" stroke="none">
<path d="M3779 4557 c-119 -34 -205 -118 -283 -278 l-51 -106 -40 34 c-172
150 -440 274 -686 319 -124 23 -362 23 -484 1 -466 -84 -851 -370 -1059 -786
-105 -208 -150 -399 -150 -641 -1 -247 49 -457 158 -667 199 -379 520 -633
945 -746 112 -30 123 -31 331 -31 174 -1 231 3 300 18 289 63 527 193 736 401
207 207 338 449 401 745 25 120 26 429 0 550 -36 172 -110 360 -192 490 -15
23 -25 43 -23 44 2 1 41 19 87 40 115 50 216 119 257 175 36 49 74 153 74 203
0 89 -54 179 -130 218 -50 26 -133 33 -191 17z m-1131 -603 c387 -79 675 -412
698 -808 23 -388 -220 -750 -589 -877 -332 -114 -674 -28 -919 230 -97 102
-154 197 -199 331 -29 84 -33 111 -37 235 -5 171 15 272 83 410 122 250 339
420 610 480 84 19 260 18 353 -1z"/>
<path d="M1166 1589 c-92 -73 -99 -243 -16 -414 83 -171 220 -290 488 -427
253 -128 486 -178 837 -178 337 0 549 44 803 165 370 178 556 388 570 647 4
80 2 93 -23 143 -40 82 -101 106 -175 67 -19 -10 -82 -53 -139 -95 -266 -199
-513 -307 -785 -343 -150 -20 -456 -14 -586 10 -241 47 -463 151 -709 335
-153 114 -210 134 -265 90z"/>
</g>
</svg>
