<svg width="10" height="11" viewBox="0 0 10 11" fill="none" xmlns="http://www.w3.org/2000/svg">
<path d="M7.25 1.56879C7.35944 1.45905 7.48935 1.372 7.63234 1.31261C7.77532 1.25322 7.92857 1.22266 8.08333 1.22266C8.2381 1.22266 8.39135 1.25322 8.53433 1.31261C8.67731 1.372 8.80723 1.45905 8.91667 1.56879C9.0261 1.67853 9.11291 1.80881 9.17214 1.95219C9.23136 2.09557 9.26184 2.24924 9.26184 2.40443C9.26184 2.55963 9.23136 2.7133 9.17214 2.85668C9.11291 3.00006 9.0261 3.13034 8.91667 3.24007L3.29167 8.88065L1 9.50739L1.625 7.20937L7.25 1.56879Z" stroke="#356EFD" stroke-linecap="round" stroke-linejoin="round"/>
</svg>
