<svg width="133" height="28" viewBox="0 0 133 28" fill="none" xmlns="http://www.w3.org/2000/svg">
<path d="M107.238 21.4875H104.08V13.4286C104.08 9.02327 107.663 5.43994 112.069 5.43994C113.669 5.43994 115.214 5.91208 116.537 6.80564L114.769 9.42257C113.97 8.8828 113.038 8.59795 112.069 8.59795C109.405 8.59795 107.238 10.7649 107.238 13.4286V21.4875Z" fill="#ED3726"/>
<path d="M8.74649 21.408C4.34114 21.408 0.757812 17.8247 0.757812 13.4193C0.757812 9.01399 4.34114 5.43066 8.74649 5.43066C11.6509 5.43066 14.3302 7.01227 15.7389 9.55767L12.9762 11.0859C12.1243 9.54596 10.5037 8.58868 8.74779 8.58868C6.08403 8.58868 3.91712 10.7556 3.91712 13.4193C3.91712 16.0831 6.08403 18.25 8.74779 18.25C10.4608 18.25 12.0112 17.3656 12.8943 15.8854L15.6062 17.5034C14.169 19.9123 11.5416 21.408 8.74779 21.408H8.74649Z" fill="#ED3726"/>
<path d="M24.4477 21.408C20.0423 21.408 16.459 17.8247 16.459 13.4193C16.459 9.01399 20.0423 5.43066 24.4477 5.43066C28.853 5.43066 32.4363 9.01399 32.4363 13.4193C32.4363 17.8247 28.853 21.408 24.4477 21.408ZM24.4477 8.58868C21.7839 8.58868 19.617 10.7556 19.617 13.4193C19.617 16.0831 21.7839 18.25 24.4477 18.25C27.1114 18.25 29.2783 16.0831 29.2783 13.4193C29.2783 10.7556 27.1114 8.58868 24.4477 8.58868Z" fill="#ED3726"/>
<path d="M59.35 21.408C54.9447 21.408 51.3613 17.8247 51.3613 13.4193C51.3613 9.01399 54.9447 5.43066 59.35 5.43066C63.7554 5.43066 67.3387 9.01399 67.3387 13.4193C67.3387 17.8247 63.7554 21.408 59.35 21.408ZM59.35 8.58868C56.6862 8.58868 54.5193 10.7556 54.5193 13.4193C54.5193 16.0831 56.6862 18.25 59.35 18.25C62.0138 18.25 64.1807 16.0831 64.1807 13.4193C64.1807 10.7556 62.0138 8.58868 59.35 8.58868Z" fill="#ED3726"/>
<path d="M94.1293 21.408C89.724 21.408 86.1406 17.8247 86.1406 13.4193C86.1406 9.01399 89.724 5.43066 94.1293 5.43066C98.5346 5.43066 102.118 9.01399 102.118 13.4193C102.118 17.8247 98.5346 21.408 94.1293 21.408ZM94.1293 8.58868C91.4655 8.58868 89.2986 10.7556 89.2986 13.4193C89.2986 16.0831 91.4655 18.25 94.1293 18.25C96.7931 18.25 98.96 16.0831 98.96 13.4193C98.96 10.7556 96.7931 8.58868 94.1293 8.58868Z" fill="#ED3726"/>
<path d="M76.7191 5.43066C72.3138 5.43066 68.7305 9.01399 68.7305 13.4193V25.1825H71.8885V19.7757C73.2308 20.798 74.9047 21.408 76.7191 21.408C81.1245 21.408 84.7078 17.8247 84.7078 13.4193C84.7078 9.01399 81.1245 5.43066 76.7191 5.43066ZM76.7191 18.25C74.0554 18.25 71.8885 16.0831 71.8885 13.4193C71.8885 10.7556 74.0554 8.58868 76.7191 8.58868C79.3829 8.58868 81.5498 10.7556 81.5498 13.4193C81.5498 16.0831 79.3829 18.25 76.7191 18.25Z" fill="#ED3726"/>
<path d="M127.381 6.61538H121.222V2.71729H118.064V21.4872H121.222V9.77339H127.381V6.61538Z" fill="#ED3726"/>
<path d="M50.5009 5.67399C49.8284 5.00155 48.7671 5.3072 48.1857 5.8873C47.867 6.20596 47.5497 6.83158 47.2778 7.48321C45.76 6.10711 43.7192 5.3072 41.5159 5.41386C37.104 5.62586 33.6872 9.38738 33.8979 13.7992C34.1099 18.2111 37.8714 21.6279 42.2833 21.4159C46.6951 21.2039 50.112 17.4424 49.9 13.0305C49.8271 11.5205 49.3381 10.1275 48.5512 8.95556C49.251 8.67202 49.9442 8.33125 50.2863 7.98917C50.8664 7.40908 51.172 6.34643 50.4996 5.67399H50.5009ZM42.1324 18.2527C39.4648 18.3802 37.1899 16.3147 37.0611 13.6458C36.9337 10.9781 38.9991 8.70324 41.6681 8.57447C44.3357 8.447 46.6106 10.5125 46.7394 13.1814C46.8668 15.8491 44.8014 18.1239 42.1324 18.2527Z" fill="#ED3726"/>
<path d="M49.2217 21.836C48.9069 21.4562 48.41 21.6591 48.081 21.914C47.644 22.2535 47.203 22.5852 46.7309 22.8778C45.7931 23.4605 44.7643 23.9106 43.6717 24.0966C42.6286 24.2734 41.1679 24.2734 40.1235 24.0966C39.031 23.9106 38.0021 23.4605 37.0644 22.8778C36.5935 22.5852 36.1526 22.2548 35.7143 21.914C35.3852 21.6591 34.8896 21.4562 34.5736 21.836C33.9714 22.5631 34.3499 23.7051 34.7973 24.4087C35.3722 25.3114 36.3815 25.9201 37.3115 26.3987C37.3297 26.4078 37.3479 26.4169 37.3661 26.426C38.7591 27.1219 40.1677 27.3833 41.8963 27.3833C43.6249 27.3833 45.0335 27.1219 46.4265 26.426C46.4447 26.4169 46.4629 26.4078 46.4812 26.3987C47.4111 25.9201 48.4191 25.3114 48.9953 24.4087C49.4428 23.7064 49.8213 22.5631 49.2191 21.836H49.2217Z" fill="#ED3726"/>
<path d="M128.996 1.25555C128.996 1.25555 129.77 1.24775 130.151 1.25686C130.621 1.26856 131.002 1.68737 130.977 2.15431C130.957 2.5172 130.772 2.78253 130.418 2.93731C130.587 3.32621 130.928 4.10531 130.928 4.10531H130.383L129.908 2.99194H129.49V4.10401H128.996V1.25555ZM129.489 2.50029C129.489 2.50029 130.126 2.50029 130.142 2.49899C130.328 2.48078 130.476 2.326 130.481 2.14261C130.488 1.92019 130.323 1.75241 130.094 1.75111H129.488V2.50029H129.489Z" fill="#ED3726"/>
<path d="M132.331 2.7032C132.331 4.0637 131.228 5.16666 129.868 5.16666C128.507 5.16666 127.404 4.0637 127.404 2.7032C127.404 1.34271 128.507 0.239746 129.868 0.239746C131.228 0.239746 132.331 1.34271 132.331 2.7032ZM129.868 0.75741C128.793 0.75741 127.922 1.62886 127.922 2.7032C127.922 3.77755 128.793 4.64899 129.868 4.64899C130.942 4.64899 131.814 3.77755 131.814 2.7032C131.814 1.62886 130.942 0.75741 129.868 0.75741Z" fill="#ED3726"/>
</svg>
